<svg xmlns="http://www.w3.org/2000/svg"
     viewBox="0 0 420 90"
     width="420" height="90">

  <g transform="translate(-1 -35)">
    <g transform="translate(80 80) scale(0.585) translate(-80 -80)">
      <polygon points="19,45 80,10 80,45 50,63"
               fill="#000000" stroke="#ffffff" stroke-width="1" vector-effect="non-scaling-stroke"/>
      <polygon points="80,10 141,45 110,63 80,45"
               fill="#000000" stroke="#ffffff" stroke-width="1" vector-effect="non-scaling-stroke"/>
      <polygon points="141,45 141,115 110,98 110,63"
               fill="#000000" stroke="#ffffff" stroke-width="1" vector-effect="non-scaling-stroke"/>
      <polygon points="141,115 80,150 80,115 110,98"
               fill="#000000" stroke="#ffffff" stroke-width="1" vector-effect="non-scaling-stroke"/>
      <polygon points="80,150 19,115 50,98 80,115"
               fill="#000000" stroke="#ffffff" stroke-width="1" vector-effect="non-scaling-stroke"/>
      <polygon points="19,115 19,45 50,63 50,98"
               fill="#000000" stroke="#ffffff" stroke-width="1" vector-effect="non-scaling-stroke"/>

      <polygon points="80,45 110,63 110,98 80,115 50,98 50,63"
               fill="#000000" stroke="#ffffff" stroke-width="1" vector-effect="non-scaling-stroke"/>

      <line x1="80" y1="80" x2="50" y2="63"
            stroke="#ffffff" stroke-width="1" vector-effect="non-scaling-stroke"/>
      <line x1="80" y1="80" x2="110" y2="63"
            stroke="#ffffff" stroke-width="1" vector-effect="non-scaling-stroke"/>
      <line x1="80" y1="80" x2="80" y2="115"
            stroke="#ffffff" stroke-width="1" vector-effect="non-scaling-stroke"/>
    </g>
  </g>

  <path
    d="M173 396Q191 434 230.5 460.5Q270 487 324 487Q372 487 410.5 465.0Q449 443 471 392Q495 438 538.0 462.5Q581 487 632 487Q678 487 711.0 471.5Q744 456 766.0 430.0Q788 404 798.5 369.0Q809 334 809 294V0H715V263Q715 292 710.0 318.0Q705 344 693.0 364.0Q681 384 661.0 396.0Q641 408 610 408Q578 408 555.0 394.5Q532 381 517.5 359.5Q503 338 496.5 311.0Q490 284 490 256V0H396V282Q396 310 391.0 333.0Q386 356 374.0 372.5Q362 389 343.0 398.5Q324 408 296 408Q244 408 209.5 365.5Q175 323 175 252V0H81V372Q81 391 80.0 421.0Q79 451 77 474H166Q168 456 169.0 433.5Q170 411 170 396H173ZM1054.6666666666665 0H960.6666666666666V474H1054.6666666666665ZM1070.6666666666665 645Q1070.6666666666665 619 1052.1666666666665 602.0Q1033.6666666666665 585 1007.6666666666666 585Q981.6666666666666 585 963.6666666666666 602.5Q945.6666666666666 620 945.6666666666666 645Q945.6666666666666 671 963.6666666666666 688.5Q981.6666666666666 706 1007.6666666666666 706Q1033.6666666666665 706 1052.1666666666665 688.5Q1070.6666666666665 671 1070.6666666666665 645ZM1210.3333333333333 372Q1210.3333333333333 391 1209.3333333333333 421.0Q1208.3333333333333 451 1206.3333333333333 474H1295.3333333333333Q1297.3333333333333 456 1298.3333333333333 432.5Q1299.3333333333333 409 1299.3333333333333 394H1302.3333333333333Q1322.3333333333333 436 1360.8333333333333 461.5Q1399.3333333333333 487 1447.3333333333333 487Q1469.3333333333333 487 1484.3333333333333 483L1480.3333333333333 396Q1460.3333333333333 401 1437.3333333333333 401Q1403.3333333333333 401 1378.3333333333333 388.5Q1353.3333333333333 376 1336.8333333333333 355.0Q1320.3333333333333 334 1312.3333333333333 306.5Q1304.3333333333333 279 1304.3333333333333 249V0H1210.3333333333333V372ZM1846.0 307Q1846.0 360 1814.0 385.5Q1782.0 411 1729.0 411Q1689.0 411 1653.5 395.5Q1618.0 380 1594.0 356L1544.0 416Q1579.0 449 1629.5 468.0Q1680.0 487 1738.0 487Q1789.0 487 1826.5 472.5Q1864.0 458 1888.0 433.0Q1912.0 408 1924.0 374.0Q1936.0 340 1936.0 301V94Q1936.0 70 1937.5 43.5Q1939.0 17 1943.0 0H1858.0Q1850.0 34 1850.0 68H1847.0Q1821.0 30 1781.5 9.0Q1742.0 -12 1688.0 -12Q1660.0 -12 1629.5 -4.5Q1599.0 3 1574.0 20.0Q1549.0 37 1532.5 65.0Q1516.0 93 1516.0 134Q1516.0 188 1545.0 219.5Q1574.0 251 1621.0 267.5Q1668.0 284 1727.0 289.0Q1786.0 294 1846.0 294ZM1823.0 226Q1788.0 226 1750.5 223.0Q1713.0 220 1682.5 211.0Q1652.0 202 1632.0 184.0Q1612.0 166 1612.0 136Q1612.0 115 1620.5 101.0Q1629.0 87 1643.0 78.0Q1657.0 69 1674.0 65.5Q1691.0 62 1709.0 62Q1775.0 62 1810.5 101.5Q1846.0 141 1846.0 201V226ZM2121.666666666667 -81Q2152.666666666667 -116 2199.166666666667 -137.0Q2245.666666666667 -158 2294.666666666667 -158Q2341.666666666667 -158 2373.666666666667 -144.5Q2405.666666666667 -131 2425.166666666667 -107.5Q2444.666666666667 -84 2453.166666666667 -52.0Q2461.666666666667 -20 2461.666666666667 17V78H2459.666666666667Q2433.666666666667 38 2388.666666666667 17.0Q2343.666666666667 -4 2292.666666666667 -4Q2238.666666666667 -4 2194.166666666667 15.0Q2149.666666666667 34 2118.666666666667 67.0Q2087.666666666667 100 2070.666666666667 144.5Q2053.666666666667 189 2053.666666666667 240Q2053.666666666667 291 2070.666666666667 336.0Q2087.666666666667 381 2118.666666666667 414.5Q2149.666666666667 448 2193.666666666667 467.5Q2237.666666666667 487 2291.666666666667 487Q2342.666666666667 487 2389.166666666667 465.0Q2435.666666666667 443 2462.666666666667 398H2464.666666666667V474H2555.666666666667V24Q2555.666666666667 -28 2542.666666666667 -75.5Q2529.666666666667 -123 2498.666666666667 -159.5Q2467.666666666667 -196 2417.666666666667 -218.0Q2367.666666666667 -240 2293.666666666667 -240Q2231.666666666667 -240 2169.166666666667 -217.5Q2106.666666666667 -195 2061.666666666667 -154ZM2150.666666666667 242Q2150.666666666667 209 2161.166666666667 179.0Q2171.666666666667 149 2192.166666666667 126.0Q2212.666666666667 103 2241.666666666667 89.0Q2270.666666666667 75 2307.666666666667 75Q2343.666666666667 75 2373.666666666667 88.0Q2403.666666666667 101 2424.666666666667 123.5Q2445.666666666667 146 2457.166666666667 176.5Q2468.666666666667 207 2468.666666666667 242Q2468.666666666667 276 2457.166666666667 306.0Q2445.666666666667 336 2424.166666666667 359.0Q2402.666666666667 382 2373.166666666667 395.5Q2343.666666666667 409 2307.666666666667 409Q2270.666666666667 409 2241.666666666667 395.5Q2212.666666666667 382 2192.166666666667 359.5Q2171.666666666667 337 2161.166666666667 306.5Q2150.666666666667 276 2150.666666666667 242ZM3055.3333333333335 279Q3054.3333333333335 307 3045.8333333333335 331.5Q3037.3333333333335 356 3020.8333333333335 374.0Q3004.3333333333335 392 2979.8333333333335 402.5Q2955.3333333333335 413 2922.3333333333335 413Q2892.3333333333335 413 2865.8333333333335 402.5Q2839.3333333333335 392 2819.8333333333335 374.0Q2800.3333333333335 356 2787.8333333333335 331.5Q2775.3333333333335 307 2773.3333333333335 279ZM3150.3333333333335 241Q3150.3333333333335 233 3150.3333333333335 225.0Q3150.3333333333335 217 3149.3333333333335 209H2773.3333333333335Q2774.3333333333335 179 2786.8333333333335 152.5Q2799.3333333333335 126 2820.3333333333335 106.5Q2841.3333333333335 87 2868.8333333333335 76.0Q2896.3333333333335 65 2927.3333333333335 65Q2975.3333333333335 65 3010.3333333333335 86.0Q3045.3333333333335 107 3065.3333333333335 137L3131.3333333333335 84Q3093.3333333333335 34 3041.8333333333335 10.5Q2990.3333333333335 -13 2927.3333333333335 -13Q2873.3333333333335 -13 2827.3333333333335 5.0Q2781.3333333333335 23 2748.3333333333335 55.5Q2715.3333333333335 88 2696.3333333333335 134.0Q2677.3333333333335 180 2677.3333333333335 236Q2677.3333333333335 291 2695.8333333333335 337.5Q2714.3333333333335 384 2747.3333333333335 417.0Q2780.3333333333335 450 2825.3333333333335 468.5Q2870.3333333333335 487 2922.3333333333335 487Q2974.3333333333335 487 3016.8333333333335 470.0Q3059.3333333333335 453 3088.8333333333335 421.0Q3118.3333333333335 389 3134.3333333333335 343.5Q3150.3333333333335 298 3150.3333333333335 241Z"
    fill="#000000"
    transform="translate(137 58.98) scale(0.06 -0.06)"
  />

</svg>
