<svg xmlns="http://www.w3.org/2000/svg"
     viewBox="-2.437 31.892 555.485 197.108"
     width="549.485" height="197.108">

  <rect x="0.563" y="27.892" width="549.485" height="201.108" fill="#0E0E10"/>

  <g transform="translate(31 26)">
    <g transform="translate(80 80) scale(0.6428571429) translate(-80 -80)">
      <polygon points="19,45 80,10 80,45 50,63"
               fill="#ffffff" stroke="#000000" stroke-width="3" vector-effect="non-scaling-stroke"/>
      <polygon points="80,10 141,45 110,63 80,45"
               fill="#ffffff" stroke="#000000" stroke-width="3" vector-effect="non-scaling-stroke"/>
      <polygon points="141,45 141,115 110,98 110,63"
               fill="#ffffff" stroke="#000000" stroke-width="3" vector-effect="non-scaling-stroke"/>
      <polygon points="141,115 80,150 80,115 110,98"
               fill="#ffffff" stroke="#000000" stroke-width="3" vector-effect="non-scaling-stroke"/>
      <polygon points="80,150 19,115 50,98 80,115"
               fill="#ffffff" stroke="#000000" stroke-width="3" vector-effect="non-scaling-stroke"/>
      <polygon points="19,115 19,45 50,63 50,98"
               fill="#ffffff" stroke="#000000" stroke-width="3" vector-effect="non-scaling-stroke"/>

      <polygon points="80,45 110,63 110,98 80,115 50,98 50,63"
               fill="#ffffff" stroke="#000000" stroke-width="3" vector-effect="non-scaling-stroke"/>

      <line x1="80" y1="80" x2="50" y2="63"
            stroke="#000000" stroke-width="3" vector-effect="non-scaling-stroke"/>
      <line x1="80" y1="80" x2="110" y2="63"
            stroke="#000000" stroke-width="3" vector-effect="non-scaling-stroke"/>
      <line x1="80" y1="80" x2="80" y2="115"
            stroke="#000000" stroke-width="3" vector-effect="non-scaling-stroke"/>
    </g>
  </g>

  <path
    d="M700 0V272Q700 293 697.0 312.5Q694 332 686.0 346.0Q678 360 664.5 368.5Q651 377 629 377Q608 377 592.5 368.0Q577 359 566.5 344.0Q556 329 551.0 309.5Q546 290 546 269V0H382V284Q382 327 365.0 352.0Q348 377 311 377Q272 377 250.5 346.0Q229 315 229 270V0H64V498H223V429H225Q234 445 247.5 460.0Q261 475 280.0 486.5Q299 498 322.5 505.0Q346 512 374 512Q428 512 465.5 490.0Q503 468 524 427Q549 466 588.0 489.0Q627 512 683 512Q734 512 768.5 493.5Q803 475 824.0 445.5Q845 416 854.5 379.5Q864 343 864 308V0ZM1154.888888888889 657Q1154.888888888889 638 1147.388888888889 621.5Q1139.888888888889 605 1127.388888888889 593.0Q1114.888888888889 581 1097.388888888889 574.0Q1079.888888888889 567 1060.888888888889 567Q1020.8888888888889 567 993.8888888888889 593.5Q966.8888888888889 620 966.8888888888889 657Q966.8888888888889 675 973.8888888888889 691.5Q980.8888888888889 708 993.8888888888889 720.0Q1006.8888888888889 732 1023.8888888888889 739.5Q1040.888888888889 747 1060.888888888889 747Q1079.888888888889 747 1097.388888888889 740.0Q1114.888888888889 733 1127.388888888889 721.0Q1139.888888888889 709 1147.388888888889 692.5Q1154.888888888889 676 1154.888888888889 657ZM978.8888888888889 0V498H1142.888888888889V0ZM1584.7777777777778 364Q1573.7777777777778 367 1563.2777777777778 368.0Q1552.7777777777778 369 1542.7777777777778 369Q1509.7777777777778 369 1487.2777777777778 357.0Q1464.7777777777778 345 1451.2777777777778 328.0Q1437.7777777777778 311 1431.7777777777778 291.0Q1425.7777777777778 271 1425.7777777777778 256V0H1261.7777777777778V498H1419.7777777777778V426H1421.7777777777778Q1440.7777777777778 464 1475.7777777777778 488.0Q1510.7777777777778 512 1556.7777777777778 512Q1566.7777777777778 512 1576.2777777777778 511.0Q1585.7777777777778 510 1591.7777777777778 508ZM1924.6666666666667 217H1903.6666666666667Q1876.6666666666667 217 1849.1666666666667 214.5Q1821.6666666666667 212 1800.1666666666667 205.0Q1778.6666666666667 198 1764.6666666666667 184.5Q1750.6666666666667 171 1750.6666666666667 149Q1750.6666666666667 135 1757.1666666666667 125.0Q1763.6666666666667 115 1773.6666666666667 109.0Q1783.6666666666667 103 1796.6666666666667 100.5Q1809.6666666666667 98 1821.6666666666667 98Q1871.6666666666667 98 1898.1666666666667 125.5Q1924.6666666666667 153 1924.6666666666667 200ZM1623.6666666666667 430Q1667.6666666666667 472 1726.1666666666667 493.0Q1784.6666666666667 514 1845.6666666666667 514Q1908.6666666666667 514 1952.1666666666667 498.5Q1995.6666666666667 483 2022.666666666667 450.5Q2049.666666666667 418 2062.166666666667 368.5Q2074.666666666667 319 2074.666666666667 251V0H1924.6666666666667V53H1921.6666666666667Q1902.6666666666667 22 1864.1666666666667 5.0Q1825.6666666666667 -12 1780.6666666666667 -12Q1750.6666666666667 -12 1718.6666666666667 -4.0Q1686.6666666666667 4 1660.1666666666667 22.0Q1633.6666666666667 40 1616.6666666666667 70.0Q1599.6666666666667 100 1599.6666666666667 144Q1599.6666666666667 198 1629.1666666666667 231.0Q1658.6666666666667 264 1705.1666666666667 282.0Q1751.6666666666667 300 1808.6666666666667 306.0Q1865.6666666666667 312 1919.6666666666667 312V320Q1919.6666666666667 357 1893.6666666666667 374.5Q1867.6666666666667 392 1829.6666666666667 392Q1794.6666666666667 392 1762.1666666666667 377.0Q1729.6666666666667 362 1706.6666666666667 341ZM2713.5555555555557 47Q2713.5555555555557 -26 2692.5555555555557 -80.0Q2671.5555555555557 -134 2633.5555555555557 -169.5Q2595.5555555555557 -205 2541.0555555555557 -222.5Q2486.5555555555557 -240 2420.5555555555557 -240Q2354.5555555555557 -240 2285.0555555555557 -220.0Q2215.5555555555557 -200 2164.5555555555557 -162L2246.5555555555557 -45Q2282.5555555555557 -77 2326.0555555555557 -92.5Q2369.5555555555557 -108 2411.5555555555557 -108Q2483.5555555555557 -108 2518.0555555555557 -70.0Q2552.5555555555557 -32 2552.5555555555557 31V61H2549.5555555555557Q2526.5555555555557 31 2487.5555555555557 13.0Q2448.5555555555557 -5 2398.5555555555557 -5Q2341.5555555555557 -5 2297.5555555555557 15.5Q2253.5555555555557 36 2223.0555555555557 71.0Q2192.5555555555557 106 2176.5555555555557 152.5Q2160.5555555555557 199 2160.5555555555557 251Q2160.5555555555557 303 2176.5555555555557 350.0Q2192.5555555555557 397 2223.0555555555557 433.0Q2253.5555555555557 469 2297.5555555555557 490.5Q2341.5555555555557 512 2397.5555555555557 512Q2444.5555555555557 512 2487.5555555555557 493.0Q2530.5555555555557 474 2556.5555555555557 434H2558.5555555555557V498H2713.5555555555557ZM2557.5555555555557 252Q2557.5555555555557 277 2549.0555555555557 300.0Q2540.5555555555557 323 2524.5555555555557 340.5Q2508.5555555555557 358 2486.5555555555557 368.0Q2464.5555555555557 378 2436.5555555555557 378Q2408.5555555555557 378 2387.0555555555557 368.0Q2365.5555555555557 358 2350.5555555555557 341.0Q2335.5555555555557 324 2327.5555555555557 301.0Q2319.5555555555557 278 2319.5555555555557 252Q2319.5555555555557 227 2327.5555555555557 204.0Q2335.5555555555557 181 2350.5555555555557 163.5Q2365.5555555555557 146 2387.0555555555557 135.5Q2408.5555555555557 125 2436.5555555555557 125Q2464.5555555555557 125 2487.0555555555557 135.5Q2509.5555555555557 146 2525.0555555555557 163.0Q2540.5555555555557 180 2549.0555555555557 203.0Q2557.5555555555557 226 2557.5555555555557 252ZM3175.4444444444443 306Q3175.4444444444443 345 3150.9444444444443 373.0Q3126.4444444444443 401 3077.4444444444443 401Q3053.4444444444443 401 3033.4444444444443 393.5Q3013.4444444444443 386 2998.4444444444443 373.0Q2983.4444444444443 360 2974.4444444444443 342.5Q2965.4444444444443 325 2964.4444444444443 306ZM3326.4444444444443 243Q3326.4444444444443 233 3326.4444444444443 223.0Q3326.4444444444443 213 3325.4444444444443 204H2964.4444444444443Q2966.4444444444443 183 2976.9444444444443 166.0Q2987.4444444444443 149 3003.9444444444443 136.5Q3020.4444444444443 124 3040.9444444444443 117.0Q3061.4444444444443 110 3083.4444444444443 110Q3122.4444444444443 110 3149.4444444444443 124.5Q3176.4444444444443 139 3193.4444444444443 162L3307.4444444444443 90Q3272.4444444444443 39 3214.9444444444443 11.5Q3157.4444444444443 -16 3081.4444444444443 -16Q3025.4444444444443 -16 2975.4444444444443 1.5Q2925.4444444444443 19 2887.9444444444443 52.5Q2850.4444444444443 86 2828.9444444444443 135.0Q2807.4444444444443 184 2807.4444444444443 247Q2807.4444444444443 308 2828.4444444444443 357.5Q2849.4444444444443 407 2885.4444444444443 441.5Q2921.4444444444443 476 2970.4444444444443 495.0Q3019.4444444444443 514 3076.4444444444443 514Q3131.4444444444443 514 3177.4444444444443 495.5Q3223.4444444444443 477 3256.4444444444443 442.0Q3289.4444444444443 407 3307.9444444444443 357.0Q3326.4444444444443 307 3326.4444444444443 243Z"
    fill="#ffffff"
    transform="translate(174 128.815) scale(0.09 -0.09)"
  />

  <text x="275.5" y="178"
        fill="#ffffff"
        font-family="Avenir Next, Helvetica Neue, Arial, sans-serif"
        font-size="16"
        font-weight="500"
        letter-spacing="0.4"
        text-anchor="middle">A Unified Virtual Filesystem for AI Agents</text>

  <text x="275.5" y="205"
        fill="#ffffff"
        font-family="Avenir Next, Helvetica Neue, Arial, sans-serif"
        font-size="14"
        font-weight="400"
        letter-spacing="0.2"
        text-anchor="middle">It seems real, but it isn&apos;t; it&apos;s a mirage.</text>

</svg>
